<mxfile host="app.diagrams.net" agent="Mozilla/5.0 (Macintosh; Intel Mac OS X 10_15_7) AppleWebKit/537.36 (KHTML, like Gecko) Chrome/140.0.0.0 Safari/537.36" version="28.2.0">
  <diagram name="Page-1" id="xm03yF34A2DDh7p-T8MI">
    <mxGraphModel dx="1129" dy="627" grid="1" gridSize="10" guides="1" tooltips="1" connect="1" arrows="1" fold="1" page="1" pageScale="1" pageWidth="827" pageHeight="1169" math="0" shadow="0">
      <root>
        <mxCell id="0" />
        <mxCell id="1" parent="0" />
        <mxCell id="t-Y_T32VaQX0_hP-noUc-43" value="" style="rounded=1;whiteSpace=wrap;html=1;fontFamily=Excalifont;fillColor=#d5e8d4;strokeColor=#82b366;" vertex="1" parent="1">
          <mxGeometry x="392" y="1280" width="428" height="270" as="geometry" />
        </mxCell>
        <mxCell id="t-Y_T32VaQX0_hP-noUc-26" value="" style="rounded=1;whiteSpace=wrap;html=1;fillColor=none;dashed=1;fontFamily=Excalifont;" vertex="1" parent="1">
          <mxGeometry x="627" y="220" width="153" height="222" as="geometry" />
        </mxCell>
        <mxCell id="t-Y_T32VaQX0_hP-noUc-16" value="" style="rounded=1;whiteSpace=wrap;html=1;fillColor=none;dashed=1;fontFamily=Excalifont;" vertex="1" parent="1">
          <mxGeometry x="320" y="218" width="240" height="190" as="geometry" />
        </mxCell>
        <mxCell id="t-Y_T32VaQX0_hP-noUc-2" value="" style="points=[[0.35,0,0],[0.98,0.51,0],[1,0.71,0],[0.67,1,0],[0,0.795,0],[0,0.65,0]];verticalLabelPosition=bottom;sketch=0;html=1;verticalAlign=top;aspect=fixed;align=center;pointerEvents=1;shape=mxgraph.cisco19.user;fillColor=#005073;strokeColor=none;fontFamily=Excalifont;" vertex="1" parent="1">
          <mxGeometry x="40" y="320" width="50" height="50" as="geometry" />
        </mxCell>
        <mxCell id="t-Y_T32VaQX0_hP-noUc-5" value="" style="sketch=0;points=[[0.015,0.015,0],[0.985,0.015,0],[0.985,0.985,0],[0.015,0.985,0],[0.25,0,0],[0.5,0,0],[0.75,0,0],[1,0.25,0],[1,0.5,0],[1,0.75,0],[0.75,1,0],[0.5,1,0],[0.25,1,0],[0,0.75,0],[0,0.5,0],[0,0.25,0]];verticalLabelPosition=bottom;html=1;verticalAlign=top;aspect=fixed;align=center;pointerEvents=1;shape=mxgraph.cisco19.rect;prIcon=load_balancer;fillColor=none;strokeColor=#005073;fontFamily=Excalifont;" vertex="1" parent="1">
          <mxGeometry x="120" y="320" width="64" height="50" as="geometry" />
        </mxCell>
        <mxCell id="t-Y_T32VaQX0_hP-noUc-6" value="Suggestion Service" style="rounded=1;whiteSpace=wrap;html=1;fontFamily=Excalifont;" vertex="1" parent="1">
          <mxGeometry x="360" y="238" width="120" height="60" as="geometry" />
        </mxCell>
        <mxCell id="t-Y_T32VaQX0_hP-noUc-7" value="Assembly Service" style="rounded=1;whiteSpace=wrap;html=1;fontFamily=Excalifont;" vertex="1" parent="1">
          <mxGeometry x="360" y="320" width="120" height="60" as="geometry" />
        </mxCell>
        <mxCell id="t-Y_T32VaQX0_hP-noUc-9" value="" style="shape=cylinder3;whiteSpace=wrap;html=1;boundedLbl=1;backgroundOutline=1;size=15;fontFamily=Excalifont;" vertex="1" parent="1">
          <mxGeometry x="650" y="328" width="60" height="80" as="geometry" />
        </mxCell>
        <mxCell id="t-Y_T32VaQX0_hP-noUc-13" value="Redis" style="image;sketch=0;aspect=fixed;html=1;points=[];align=center;fontSize=12;image=img/lib/mscae/Cache_Redis_Product.svg;fontFamily=Excalifont;" vertex="1" parent="1">
          <mxGeometry x="652" y="245" width="50" height="42" as="geometry" />
        </mxCell>
        <mxCell id="t-Y_T32VaQX0_hP-noUc-15" value="" style="sketch=0;aspect=fixed;pointerEvents=1;shadow=0;dashed=0;html=1;strokeColor=none;labelPosition=center;verticalLabelPosition=bottom;verticalAlign=top;align=center;fillColor=#00188D;shape=mxgraph.mscae.enterprise.web_server;fontFamily=Excalifont;" vertex="1" parent="1">
          <mxGeometry x="240" y="310" width="53.2" height="70" as="geometry" />
        </mxCell>
        <mxCell id="t-Y_T32VaQX0_hP-noUc-18" style="edgeStyle=orthogonalEdgeStyle;rounded=0;orthogonalLoop=1;jettySize=auto;html=1;entryX=0;entryY=0.5;entryDx=0;entryDy=0;entryPerimeter=0;fontFamily=Excalifont;" edge="1" parent="1" source="t-Y_T32VaQX0_hP-noUc-2" target="t-Y_T32VaQX0_hP-noUc-5">
          <mxGeometry relative="1" as="geometry" />
        </mxCell>
        <mxCell id="t-Y_T32VaQX0_hP-noUc-19" style="edgeStyle=orthogonalEdgeStyle;rounded=0;orthogonalLoop=1;jettySize=auto;html=1;entryX=0;entryY=0.5;entryDx=0;entryDy=0;entryPerimeter=0;fontFamily=Excalifont;" edge="1" parent="1" source="t-Y_T32VaQX0_hP-noUc-5" target="t-Y_T32VaQX0_hP-noUc-15">
          <mxGeometry relative="1" as="geometry" />
        </mxCell>
        <mxCell id="t-Y_T32VaQX0_hP-noUc-20" style="edgeStyle=orthogonalEdgeStyle;rounded=0;orthogonalLoop=1;jettySize=auto;html=1;entryX=0.042;entryY=0.668;entryDx=0;entryDy=0;entryPerimeter=0;fontFamily=Excalifont;" edge="1" parent="1" source="t-Y_T32VaQX0_hP-noUc-15" target="t-Y_T32VaQX0_hP-noUc-16">
          <mxGeometry relative="1" as="geometry" />
        </mxCell>
        <mxCell id="t-Y_T32VaQX0_hP-noUc-21" value="Web Server" style="text;html=1;align=center;verticalAlign=middle;resizable=0;points=[];autosize=1;strokeColor=none;fillColor=none;fontFamily=Excalifont;" vertex="1" parent="1">
          <mxGeometry x="220" y="398" width="90" height="30" as="geometry" />
        </mxCell>
        <mxCell id="t-Y_T32VaQX0_hP-noUc-22" value="Application Server" style="text;html=1;align=center;verticalAlign=middle;resizable=0;points=[];autosize=1;strokeColor=none;fillColor=none;fontFamily=Excalifont;" vertex="1" parent="1">
          <mxGeometry x="349" y="420" width="130" height="30" as="geometry" />
        </mxCell>
        <mxCell id="t-Y_T32VaQX0_hP-noUc-23" value="Load Balancer" style="text;html=1;align=center;verticalAlign=middle;resizable=0;points=[];autosize=1;strokeColor=none;fillColor=none;fontFamily=Excalifont;" vertex="1" parent="1">
          <mxGeometry x="97" y="398" width="110" height="30" as="geometry" />
        </mxCell>
        <mxCell id="t-Y_T32VaQX0_hP-noUc-24" value="NoSQL" style="shape=cylinder3;whiteSpace=wrap;html=1;boundedLbl=1;backgroundOutline=1;size=15;fontFamily=Excalifont;" vertex="1" parent="1">
          <mxGeometry x="687" y="347" width="60" height="80" as="geometry" />
        </mxCell>
        <mxCell id="t-Y_T32VaQX0_hP-noUc-25" style="edgeStyle=orthogonalEdgeStyle;rounded=0;orthogonalLoop=1;jettySize=auto;html=1;entryX=0.45;entryY=0.238;entryDx=0;entryDy=0;entryPerimeter=0;startArrow=classic;startFill=1;fontFamily=Excalifont;" edge="1" parent="1" source="t-Y_T32VaQX0_hP-noUc-13" target="t-Y_T32VaQX0_hP-noUc-9">
          <mxGeometry relative="1" as="geometry" />
        </mxCell>
        <mxCell id="t-Y_T32VaQX0_hP-noUc-27" style="edgeStyle=orthogonalEdgeStyle;rounded=0;orthogonalLoop=1;jettySize=auto;html=1;entryX=-0.013;entryY=0.419;entryDx=0;entryDy=0;entryPerimeter=0;fontFamily=Excalifont;" edge="1" parent="1" source="t-Y_T32VaQX0_hP-noUc-16" target="t-Y_T32VaQX0_hP-noUc-26">
          <mxGeometry relative="1" as="geometry" />
        </mxCell>
        <mxCell id="t-Y_T32VaQX0_hP-noUc-33" style="edgeStyle=orthogonalEdgeStyle;rounded=0;orthogonalLoop=1;jettySize=auto;html=1;entryX=0.5;entryY=0;entryDx=0;entryDy=0;fontFamily=Excalifont;" edge="1" parent="1" source="t-Y_T32VaQX0_hP-noUc-29" target="t-Y_T32VaQX0_hP-noUc-30">
          <mxGeometry relative="1" as="geometry" />
        </mxCell>
        <mxCell id="t-Y_T32VaQX0_hP-noUc-34" style="edgeStyle=orthogonalEdgeStyle;rounded=0;orthogonalLoop=1;jettySize=auto;html=1;entryX=0.5;entryY=0;entryDx=0;entryDy=0;fontFamily=Excalifont;" edge="1" parent="1" source="t-Y_T32VaQX0_hP-noUc-29" target="t-Y_T32VaQX0_hP-noUc-31">
          <mxGeometry relative="1" as="geometry" />
        </mxCell>
        <mxCell id="t-Y_T32VaQX0_hP-noUc-35" style="edgeStyle=orthogonalEdgeStyle;rounded=0;orthogonalLoop=1;jettySize=auto;html=1;entryX=0.5;entryY=0;entryDx=0;entryDy=0;fontFamily=Excalifont;" edge="1" parent="1" source="t-Y_T32VaQX0_hP-noUc-29" target="t-Y_T32VaQX0_hP-noUc-32">
          <mxGeometry relative="1" as="geometry" />
        </mxCell>
        <mxCell id="t-Y_T32VaQX0_hP-noUc-29" value="a" style="ellipse;whiteSpace=wrap;html=1;aspect=fixed;fillColor=none;fontFamily=Excalifont;" vertex="1" parent="1">
          <mxGeometry x="360" y="560" width="50" height="50" as="geometry" />
        </mxCell>
        <mxCell id="t-Y_T32VaQX0_hP-noUc-37" style="edgeStyle=orthogonalEdgeStyle;rounded=0;orthogonalLoop=1;jettySize=auto;html=1;entryX=0.5;entryY=0;entryDx=0;entryDy=0;fontFamily=Excalifont;" edge="1" parent="1" source="t-Y_T32VaQX0_hP-noUc-30" target="t-Y_T32VaQX0_hP-noUc-36">
          <mxGeometry relative="1" as="geometry" />
        </mxCell>
        <mxCell id="t-Y_T32VaQX0_hP-noUc-30" value="n" style="ellipse;whiteSpace=wrap;html=1;aspect=fixed;fillColor=none;fontFamily=Excalifont;" vertex="1" parent="1">
          <mxGeometry x="280" y="640" width="50" height="50" as="geometry" />
        </mxCell>
        <mxCell id="t-Y_T32VaQX0_hP-noUc-31" value="t" style="ellipse;whiteSpace=wrap;html=1;aspect=fixed;fillColor=none;fontFamily=Excalifont;" vertex="1" parent="1">
          <mxGeometry x="360" y="640" width="50" height="50" as="geometry" />
        </mxCell>
        <mxCell id="t-Y_T32VaQX0_hP-noUc-32" value="s" style="ellipse;whiteSpace=wrap;html=1;aspect=fixed;fillColor=none;fontFamily=Excalifont;" vertex="1" parent="1">
          <mxGeometry x="440" y="640" width="50" height="50" as="geometry" />
        </mxCell>
        <mxCell id="t-Y_T32VaQX0_hP-noUc-36" value="t" style="ellipse;whiteSpace=wrap;html=1;aspect=fixed;fillColor=none;fontFamily=Excalifont;" vertex="1" parent="1">
          <mxGeometry x="220" y="720" width="50" height="50" as="geometry" />
        </mxCell>
        <mxCell id="t-Y_T32VaQX0_hP-noUc-40" value="" style="points=[[0.35,0,0],[0.98,0.51,0],[1,0.71,0],[0.67,1,0],[0,0.795,0],[0,0.65,0]];verticalLabelPosition=bottom;sketch=0;html=1;verticalAlign=top;aspect=fixed;align=center;pointerEvents=1;shape=mxgraph.cisco19.user;fillColor=#005073;strokeColor=none;fontFamily=Excalifont;" vertex="1" parent="1">
          <mxGeometry x="20" y="1395" width="50" height="50" as="geometry" />
        </mxCell>
        <mxCell id="t-Y_T32VaQX0_hP-noUc-41" value="" style="sketch=0;points=[[0.015,0.015,0],[0.985,0.015,0],[0.985,0.985,0],[0.015,0.985,0],[0.25,0,0],[0.5,0,0],[0.75,0,0],[1,0.25,0],[1,0.5,0],[1,0.75,0],[0.75,1,0],[0.5,1,0],[0.25,1,0],[0,0.75,0],[0,0.5,0],[0,0.25,0]];verticalLabelPosition=bottom;html=1;verticalAlign=top;aspect=fixed;align=center;pointerEvents=1;shape=mxgraph.cisco19.rect;prIcon=load_balancer;fillColor=none;strokeColor=#005073;fontFamily=Excalifont;" vertex="1" parent="1">
          <mxGeometry x="109.92" y="1395" width="64" height="50" as="geometry" />
        </mxCell>
        <mxCell id="t-Y_T32VaQX0_hP-noUc-42" value="Suggestion Service" style="rounded=1;whiteSpace=wrap;html=1;fontFamily=Excalifont;" vertex="1" parent="1">
          <mxGeometry x="390" y="1210" width="260" height="60" as="geometry" />
        </mxCell>
        <mxCell id="t-Y_T32VaQX0_hP-noUc-45" value="Trie Cache" style="image;sketch=0;aspect=fixed;html=1;points=[];align=center;fontSize=12;image=img/lib/mscae/Cache_Redis_Product.svg;fontFamily=Excalifont;" vertex="1" parent="1">
          <mxGeometry x="890" y="1298" width="50" height="42" as="geometry" />
        </mxCell>
        <mxCell id="t-Y_T32VaQX0_hP-noUc-46" value="" style="sketch=0;aspect=fixed;pointerEvents=1;shadow=0;dashed=0;html=1;strokeColor=none;labelPosition=center;verticalLabelPosition=bottom;verticalAlign=top;align=center;fillColor=#00188D;shape=mxgraph.mscae.enterprise.web_server;fontFamily=Excalifont;" vertex="1" parent="1">
          <mxGeometry x="203.92000000000002" y="1385" width="53.2" height="70" as="geometry" />
        </mxCell>
        <mxCell id="t-Y_T32VaQX0_hP-noUc-47" style="edgeStyle=orthogonalEdgeStyle;rounded=0;orthogonalLoop=1;jettySize=auto;html=1;entryX=0;entryY=0.5;entryDx=0;entryDy=0;entryPerimeter=0;fontFamily=Excalifont;" edge="1" parent="1" target="t-Y_T32VaQX0_hP-noUc-41">
          <mxGeometry relative="1" as="geometry">
            <mxPoint x="79.92" y="1420" as="sourcePoint" />
          </mxGeometry>
        </mxCell>
        <mxCell id="t-Y_T32VaQX0_hP-noUc-48" style="edgeStyle=orthogonalEdgeStyle;rounded=0;orthogonalLoop=1;jettySize=auto;html=1;entryX=0;entryY=0.5;entryDx=0;entryDy=0;entryPerimeter=0;fontFamily=Excalifont;" edge="1" parent="1" source="t-Y_T32VaQX0_hP-noUc-41" target="t-Y_T32VaQX0_hP-noUc-46">
          <mxGeometry relative="1" as="geometry" />
        </mxCell>
        <mxCell id="t-Y_T32VaQX0_hP-noUc-50" value="Web Server" style="text;html=1;align=center;verticalAlign=middle;resizable=0;points=[];autosize=1;strokeColor=none;fillColor=none;fontFamily=Excalifont;" vertex="1" parent="1">
          <mxGeometry x="250" y="1360" width="90" height="30" as="geometry" />
        </mxCell>
        <mxCell id="t-Y_T32VaQX0_hP-noUc-52" value="Load Balancer" style="text;html=1;align=center;verticalAlign=middle;resizable=0;points=[];autosize=1;strokeColor=none;fillColor=none;fontFamily=Excalifont;" vertex="1" parent="1">
          <mxGeometry x="167" y="1140" width="110" height="30" as="geometry" />
        </mxCell>
        <mxCell id="t-Y_T32VaQX0_hP-noUc-69" style="edgeStyle=orthogonalEdgeStyle;rounded=0;orthogonalLoop=1;jettySize=auto;html=1;fontFamily=Excalifont;" edge="1" parent="1" source="t-Y_T32VaQX0_hP-noUc-53">
          <mxGeometry relative="1" as="geometry">
            <mxPoint x="920" y="1370" as="targetPoint" />
          </mxGeometry>
        </mxCell>
        <mxCell id="t-Y_T32VaQX0_hP-noUc-53" value="NoSQL" style="shape=cylinder3;whiteSpace=wrap;html=1;boundedLbl=1;backgroundOutline=1;size=15;fontFamily=Excalifont;fillColor=#fff2cc;strokeColor=#d6b656;" vertex="1" parent="1">
          <mxGeometry x="702" y="1410" width="60" height="80" as="geometry" />
        </mxCell>
        <mxCell id="t-Y_T32VaQX0_hP-noUc-55" style="edgeStyle=orthogonalEdgeStyle;rounded=0;orthogonalLoop=1;jettySize=auto;html=1;entryX=-0.013;entryY=0.419;entryDx=0;entryDy=0;entryPerimeter=0;fontFamily=Excalifont;" edge="1" parent="1">
          <mxGeometry relative="1" as="geometry">
            <mxPoint x="630" y="1055.018" as="sourcePoint" />
            <mxPoint x="695.011" y="1055.018" as="targetPoint" />
          </mxGeometry>
        </mxCell>
        <mxCell id="t-Y_T32VaQX0_hP-noUc-56" value="Collection Service" style="rounded=1;whiteSpace=wrap;html=1;fontFamily=Excalifont;" vertex="1" parent="1">
          <mxGeometry x="414" y="1301" width="216" height="60" as="geometry" />
        </mxCell>
        <mxCell id="t-Y_T32VaQX0_hP-noUc-67" style="edgeStyle=orthogonalEdgeStyle;rounded=0;orthogonalLoop=1;jettySize=auto;html=1;fontFamily=Excalifont;" edge="1" parent="1" source="t-Y_T32VaQX0_hP-noUc-58" target="t-Y_T32VaQX0_hP-noUc-53">
          <mxGeometry relative="1" as="geometry" />
        </mxCell>
        <mxCell id="t-Y_T32VaQX0_hP-noUc-76" style="edgeStyle=orthogonalEdgeStyle;rounded=0;orthogonalLoop=1;jettySize=auto;html=1;fontFamily=Excalifont;" edge="1" parent="1" source="t-Y_T32VaQX0_hP-noUc-58" target="t-Y_T32VaQX0_hP-noUc-63">
          <mxGeometry relative="1" as="geometry">
            <Array as="points">
              <mxPoint x="522" y="1380" />
              <mxPoint x="713" y="1380" />
            </Array>
          </mxGeometry>
        </mxCell>
        <mxCell id="t-Y_T32VaQX0_hP-noUc-58" value="Aggregator&amp;nbsp; Service" style="rounded=1;whiteSpace=wrap;html=1;fontFamily=Excalifont;" vertex="1" parent="1">
          <mxGeometry x="414" y="1390" width="216" height="60" as="geometry" />
        </mxCell>
        <mxCell id="t-Y_T32VaQX0_hP-noUc-72" style="edgeStyle=orthogonalEdgeStyle;rounded=0;orthogonalLoop=1;jettySize=auto;html=1;entryX=0;entryY=0.5;entryDx=0;entryDy=0;fontFamily=Excalifont;" edge="1" parent="1" source="t-Y_T32VaQX0_hP-noUc-59" target="t-Y_T32VaQX0_hP-noUc-70">
          <mxGeometry relative="1" as="geometry">
            <Array as="points">
              <mxPoint x="855" y="1510" />
            </Array>
          </mxGeometry>
        </mxCell>
        <mxCell id="t-Y_T32VaQX0_hP-noUc-59" value="Trie Builder" style="rounded=1;whiteSpace=wrap;html=1;fontFamily=Excalifont;" vertex="1" parent="1">
          <mxGeometry x="414" y="1470" width="216" height="60" as="geometry" />
        </mxCell>
        <mxCell id="t-Y_T32VaQX0_hP-noUc-62" value="HDFS File Sysyem" style="text;html=1;align=center;verticalAlign=middle;resizable=0;points=[];autosize=1;strokeColor=none;fillColor=none;fontFamily=Excalifont;" vertex="1" parent="1">
          <mxGeometry x="662" y="1380" width="130" height="30" as="geometry" />
        </mxCell>
        <mxCell id="t-Y_T32VaQX0_hP-noUc-63" value="" style="outlineConnect=0;dashed=0;verticalLabelPosition=bottom;verticalAlign=top;align=center;html=1;shape=mxgraph.aws3.hdfs_cluster;fillColor=#F58534;gradientColor=none;fontFamily=Excalifont;" vertex="1" parent="1">
          <mxGeometry x="682" y="1300" width="61.5" height="63" as="geometry" />
        </mxCell>
        <mxCell id="t-Y_T32VaQX0_hP-noUc-65" value="Cassandra" style="text;html=1;align=center;verticalAlign=middle;resizable=0;points=[];autosize=1;strokeColor=none;fillColor=none;fontFamily=Excalifont;" vertex="1" parent="1">
          <mxGeometry x="692" y="1485" width="80" height="30" as="geometry" />
        </mxCell>
        <mxCell id="t-Y_T32VaQX0_hP-noUc-66" style="edgeStyle=orthogonalEdgeStyle;rounded=0;orthogonalLoop=1;jettySize=auto;html=1;entryX=0;entryY=0.5;entryDx=0;entryDy=0;entryPerimeter=0;fontFamily=Excalifont;" edge="1" parent="1" source="t-Y_T32VaQX0_hP-noUc-56" target="t-Y_T32VaQX0_hP-noUc-63">
          <mxGeometry relative="1" as="geometry" />
        </mxCell>
        <mxCell id="t-Y_T32VaQX0_hP-noUc-68" style="edgeStyle=orthogonalEdgeStyle;rounded=0;orthogonalLoop=1;jettySize=auto;html=1;entryX=0.54;entryY=0.048;entryDx=0;entryDy=0;entryPerimeter=0;fontFamily=Excalifont;" edge="1" parent="1" source="t-Y_T32VaQX0_hP-noUc-42" target="t-Y_T32VaQX0_hP-noUc-45">
          <mxGeometry relative="1" as="geometry" />
        </mxCell>
        <mxCell id="t-Y_T32VaQX0_hP-noUc-74" style="edgeStyle=orthogonalEdgeStyle;rounded=0;orthogonalLoop=1;jettySize=auto;html=1;fontFamily=Excalifont;" edge="1" parent="1" source="t-Y_T32VaQX0_hP-noUc-70">
          <mxGeometry relative="1" as="geometry">
            <mxPoint x="1030" y="1470" as="targetPoint" />
          </mxGeometry>
        </mxCell>
        <mxCell id="t-Y_T32VaQX0_hP-noUc-70" value="Zookeeper" style="rounded=1;whiteSpace=wrap;html=1;fillColor=#d5e8d4;strokeColor=#82b366;fontFamily=Excalifont;" vertex="1" parent="1">
          <mxGeometry x="870" y="1480" width="120" height="60" as="geometry" />
        </mxCell>
        <mxCell id="t-Y_T32VaQX0_hP-noUc-71" value="NoSQL" style="shape=cylinder3;whiteSpace=wrap;html=1;boundedLbl=1;backgroundOutline=1;size=15;fontFamily=Excalifont;fillColor=#fff2cc;strokeColor=#d6b656;" vertex="1" parent="1">
          <mxGeometry x="1000" y="1380" width="60" height="80" as="geometry" />
        </mxCell>
        <mxCell id="t-Y_T32VaQX0_hP-noUc-75" style="edgeStyle=orthogonalEdgeStyle;rounded=0;orthogonalLoop=1;jettySize=auto;html=1;entryX=1;entryY=0.524;entryDx=0;entryDy=0;entryPerimeter=0;fontFamily=Excalifont;" edge="1" parent="1" source="t-Y_T32VaQX0_hP-noUc-71" target="t-Y_T32VaQX0_hP-noUc-45">
          <mxGeometry relative="1" as="geometry" />
        </mxCell>
        <mxCell id="t-Y_T32VaQX0_hP-noUc-78" style="edgeStyle=orthogonalEdgeStyle;rounded=0;orthogonalLoop=1;jettySize=auto;html=1;entryX=0;entryY=0.5;entryDx=0;entryDy=0;fontFamily=Excalifont;" edge="1" parent="1" source="t-Y_T32VaQX0_hP-noUc-77" target="t-Y_T32VaQX0_hP-noUc-42">
          <mxGeometry relative="1" as="geometry" />
        </mxCell>
        <mxCell id="t-Y_T32VaQX0_hP-noUc-79" style="edgeStyle=orthogonalEdgeStyle;rounded=0;orthogonalLoop=1;jettySize=auto;html=1;entryX=0;entryY=0.5;entryDx=0;entryDy=0;fontFamily=Excalifont;" edge="1" parent="1" source="t-Y_T32VaQX0_hP-noUc-77" target="t-Y_T32VaQX0_hP-noUc-43">
          <mxGeometry relative="1" as="geometry" />
        </mxCell>
        <mxCell id="t-Y_T32VaQX0_hP-noUc-77" value="" style="sketch=0;points=[[0.015,0.015,0],[0.985,0.015,0],[0.985,0.985,0],[0.015,0.985,0],[0.25,0,0],[0.5,0,0],[0.75,0,0],[1,0.25,0],[1,0.5,0],[1,0.75,0],[0.75,1,0],[0.5,1,0],[0.25,1,0],[0,0.75,0],[0,0.5,0],[0,0.25,0]];verticalLabelPosition=bottom;html=1;verticalAlign=top;aspect=fixed;align=center;pointerEvents=1;shape=mxgraph.cisco19.rect;prIcon=load_balancer;fillColor=none;strokeColor=#005073;fontFamily=Excalifont;" vertex="1" parent="1">
          <mxGeometry x="280" y="1390" width="64" height="50" as="geometry" />
        </mxCell>
        <mxCell id="t-Y_T32VaQX0_hP-noUc-82" style="edgeStyle=orthogonalEdgeStyle;rounded=0;orthogonalLoop=1;jettySize=auto;html=1;entryX=0;entryY=0.6;entryDx=0;entryDy=0;entryPerimeter=0;fontFamily=Excalifont;" edge="1" parent="1" source="t-Y_T32VaQX0_hP-noUc-46" target="t-Y_T32VaQX0_hP-noUc-77">
          <mxGeometry relative="1" as="geometry" />
        </mxCell>
        <mxCell id="t-Y_T32VaQX0_hP-noUc-83" style="edgeStyle=orthogonalEdgeStyle;rounded=0;orthogonalLoop=1;jettySize=auto;html=1;entryX=0;entryY=1;entryDx=0;entryDy=-15;entryPerimeter=0;fontFamily=Excalifont;" edge="1" parent="1" source="t-Y_T32VaQX0_hP-noUc-59" target="t-Y_T32VaQX0_hP-noUc-53">
          <mxGeometry relative="1" as="geometry" />
        </mxCell>
        <mxCell id="t-Y_T32VaQX0_hP-noUc-84" value="Assembler Service" style="text;html=1;align=center;verticalAlign=middle;resizable=0;points=[];autosize=1;strokeColor=none;fillColor=none;fontFamily=Excalifont;" vertex="1" parent="1">
          <mxGeometry x="560" y="1570" width="130" height="30" as="geometry" />
        </mxCell>
      </root>
    </mxGraphModel>
  </diagram>
</mxfile>
